<svg width="24" height="24" viewBox="0 0 24 24" fill="none" xmlns="http://www.w3.org/2000/svg">
<g id="icon / 24x24 / phone">
<path id="Union" fill-rule="evenodd" clip-rule="evenodd" d="M7.75 3.5H16.25C16.5261 3.5 16.75 3.72386 16.75 4V20C16.75 20.2761 16.5261 20.5 16.25 20.5H7.75C7.47386 20.5 7.25 20.2761 7.25 20V4C7.25 3.72386 7.47386 3.5 7.75 3.5ZM5.75 4C5.75 2.89543 6.64543 2 7.75 2H16.25C17.3546 2 18.25 2.89543 18.25 4V20C18.25 21.1046 17.3546 22 16.25 22H7.75C6.64543 22 5.75 21.1046 5.75 20V4ZM12 19.3438C12.6041 19.3438 13.0938 18.8541 13.0938 18.25C13.0938 17.6459 12.6041 17.1562 12 17.1562C11.3959 17.1562 10.9062 17.6459 10.9062 18.25C10.9062 18.8541 11.3959 19.3438 12 19.3438Z" fill="#049b8f"/>
</g>
</svg>
