<svg width="24" height="24" viewBox="0 0 24 24" fill="none" xmlns="http://www.w3.org/2000/svg">
<path fill-rule="evenodd" clip-rule="evenodd" d="M4.675 3.59375C4.38823 3.59375 4.11321 3.70767 3.91044 3.91044C3.70767 4.11321 3.59375 4.38823 3.59375 4.675C3.59375 4.96177 3.70767 5.23679 3.91044 5.43956C4.11321 5.64233 4.38823 5.75625 4.675 5.75625C4.96177 5.75625 5.23679 5.64233 5.43956 5.43956C5.64233 5.23679 5.75625 4.96177 5.75625 4.675C5.75625 4.38823 5.64233 4.11321 5.43956 3.91044C5.23679 3.70767 4.96177 3.59375 4.675 3.59375ZM2.84978 2.84978C3.33386 2.3657 3.99041 2.09375 4.675 2.09375C5.35959 2.09375 6.01614 2.3657 6.50022 2.84978C6.9843 3.33386 7.25625 3.99041 7.25625 4.675C7.25625 5.35959 6.9843 6.01614 6.50022 6.50022C6.01614 6.9843 5.35959 7.25625 4.675 7.25625C3.99041 7.25625 3.33386 6.9843 2.84978 6.50022C2.3657 6.01614 2.09375 5.35959 2.09375 4.675C2.09375 3.99041 2.3657 3.33386 2.84978 2.84978ZM12 3.59375C11.7132 3.59375 11.4382 3.70767 11.2354 3.91044C11.0327 4.11321 10.9187 4.38824 10.9187 4.675C10.9187 4.96177 11.0327 5.23679 11.2354 5.43956C11.4382 5.64233 11.7132 5.75625 12 5.75625C12.2868 5.75625 12.5618 5.64233 12.7646 5.43956C12.9673 5.23679 13.0812 4.96177 13.0812 4.675C13.0813 4.38824 12.9673 4.11321 12.7646 3.91044C12.5618 3.70767 12.2868 3.59375 12 3.59375ZM10.1748 2.84978C10.6589 2.3657 11.3154 2.09375 12 2.09375C12.6846 2.09375 13.3411 2.3657 13.8252 2.84978C14.3093 3.33386 14.5813 3.99041 14.5812 4.675C14.5812 5.35959 14.3093 6.01614 13.8252 6.50022C13.3411 6.9843 12.6846 7.25625 12 7.25625C11.572 7.25625 11.1549 7.14995 10.7842 6.95197L6.95197 10.7842C7.14995 11.1549 7.25625 11.572 7.25625 12C7.25625 12.6846 6.9843 13.3411 6.50022 13.8252C6.01614 14.3093 5.35959 14.5812 4.675 14.5812C3.99041 14.5812 3.33386 14.3093 2.84978 13.8252C2.3657 13.3411 2.09375 12.6846 2.09375 12C2.09375 11.3154 2.3657 10.6589 2.84978 10.1748C3.33386 9.6907 3.99041 9.41875 4.675 9.41875C5.10324 9.41875 5.52051 9.52517 5.89145 9.72335L9.72335 5.89145C9.52517 5.52051 9.41875 5.10324 9.41875 4.675C9.41875 3.99041 9.6907 3.33386 10.1748 2.84978ZM19.325 3.59375C19.0382 3.59375 18.7632 3.70767 18.5604 3.91044C18.3577 4.11321 18.2437 4.38824 18.2437 4.675C18.2437 4.96177 18.3577 5.23679 18.5604 5.43956C18.7632 5.64233 19.0382 5.75625 19.325 5.75625C19.6118 5.75625 19.8868 5.64233 20.0896 5.43956C20.2923 5.23679 20.4062 4.96177 20.4062 4.675C20.4062 4.38824 20.2923 4.11321 20.0896 3.91044C19.8868 3.70767 19.6118 3.59375 19.325 3.59375ZM17.4998 2.84978C17.9839 2.3657 18.6404 2.09375 19.325 2.09375C20.0096 2.09375 20.6661 2.3657 21.1502 2.84978C21.6343 3.33386 21.9062 3.99041 21.9062 4.675C21.9062 5.35959 21.6343 6.01614 21.1502 6.50022C20.6661 6.9843 20.0096 7.25625 19.325 7.25625C18.897 7.25625 18.4799 7.14995 18.1091 6.95197L14.277 10.7842C14.4749 11.1549 14.5812 11.572 14.5812 12C14.5812 12.6846 14.3093 13.3411 13.8252 13.8252C13.3411 14.3093 12.6846 14.5812 12 14.5812C11.572 14.5812 11.1549 14.4749 10.7842 14.277L6.95197 18.1091C7.14995 18.4799 7.25625 18.897 7.25625 19.325C7.25625 20.0096 6.9843 20.6661 6.50022 21.1502C6.01614 21.6343 5.35959 21.9062 4.675 21.9062C3.99041 21.9062 3.33386 21.6343 2.84978 21.1502C2.3657 20.6661 2.09375 20.0096 2.09375 19.325C2.09375 18.6404 2.3657 17.9839 2.84978 17.4998C3.33386 17.0157 3.99041 16.7437 4.675 16.7437C5.10324 16.7437 5.52051 16.8502 5.89145 17.0484L9.72335 13.2164C9.52517 12.8455 9.41875 12.4282 9.41875 12C9.41875 11.3154 9.6907 10.6589 10.1748 10.1748C10.6589 9.6907 11.3154 9.41875 12 9.41875C12.4282 9.41875 12.8455 9.52517 13.2164 9.72335L17.0484 5.89145C16.8502 5.52051 16.7437 5.10324 16.7437 4.675C16.7437 3.99041 17.0157 3.33386 17.4998 2.84978ZM4.675 10.9187C4.38824 10.9187 4.11321 11.0327 3.91044 11.2354C3.70767 11.4382 3.59375 11.7132 3.59375 12C3.59375 12.2868 3.70767 12.5618 3.91044 12.7646C4.11321 12.9673 4.38824 13.0812 4.675 13.0812C4.96177 13.0812 5.23679 12.9673 5.43956 12.7646C5.64233 12.5618 5.75625 12.2868 5.75625 12C5.75625 11.7132 5.64233 11.4382 5.43956 11.2354C5.23679 11.0327 4.96177 10.9187 4.675 10.9187ZM12 10.9187C11.7132 10.9187 11.4382 11.0327 11.2354 11.2354C11.0327 11.4382 10.9187 11.7132 10.9187 12C10.9187 12.2868 11.0327 12.5618 11.2354 12.7646C11.4382 12.9673 11.7132 13.0812 12 13.0812C12.2868 13.0812 12.5618 12.9673 12.7646 12.7646C12.9673 12.5618 13.0812 12.2868 13.0812 12C13.0813 11.7132 12.9673 11.4382 12.7646 11.2354C12.5618 11.0327 12.2868 10.9187 12 10.9187ZM19.325 10.9187C19.0382 10.9187 18.7632 11.0327 18.5604 11.2354C18.3577 11.4382 18.2437 11.7132 18.2437 12C18.2437 12.2868 18.3577 12.5618 18.5604 12.7646C18.7632 12.9673 19.0382 13.0812 19.325 13.0812C19.6118 13.0812 19.8868 12.9673 20.0896 12.7646C20.2923 12.5618 20.4062 12.2868 20.4062 12C20.4062 11.7132 20.2923 11.4382 20.0896 11.2354C19.8868 11.0327 19.6118 10.9187 19.325 10.9187ZM17.4998 10.1748C17.9839 9.6907 18.6404 9.41875 19.325 9.41875C20.0096 9.41875 20.6661 9.6907 21.1502 10.1748C21.6343 10.6589 21.9062 11.3154 21.9062 12C21.9062 12.6846 21.6343 13.3411 21.1502 13.8252C20.6661 14.3093 20.0096 14.5812 19.325 14.5812C18.897 14.5812 18.4799 14.4749 18.1091 14.277L14.277 18.1091C14.4749 18.4799 14.5812 18.897 14.5812 19.325C14.5812 20.0096 14.3093 20.6661 13.8252 21.1502C13.3411 21.6343 12.6846 21.9062 12 21.9062C11.3154 21.9062 10.6589 21.6343 10.1748 21.1502C9.6907 20.6661 9.41875 20.0096 9.41875 19.325C9.41875 18.6404 9.6907 17.9839 10.1748 17.4998C10.6589 17.0157 11.3154 16.7437 12 16.7437C12.4282 16.7437 12.8455 16.8502 13.2164 17.0484L17.0484 13.2164C16.8502 12.8455 16.7437 12.4282 16.7437 12C16.7437 11.3154 17.0157 10.6589 17.4998 10.1748ZM4.675 18.2437C4.38824 18.2437 4.11321 18.3577 3.91044 18.5604C3.70767 18.7632 3.59375 19.0382 3.59375 19.325C3.59375 19.6118 3.70767 19.8868 3.91044 20.0896C4.11321 20.2923 4.38824 20.4062 4.675 20.4062C4.96177 20.4062 5.23679 20.2923 5.43956 20.0896C5.64233 19.8868 5.75625 19.6118 5.75625 19.325C5.75625 19.0382 5.64233 18.7632 5.43956 18.5604C5.23679 18.3577 4.96177 18.2437 4.675 18.2437ZM12 18.2437C11.7132 18.2437 11.4382 18.3577 11.2354 18.5604C11.0327 18.7632 10.9187 19.0382 10.9187 19.325C10.9187 19.6118 11.0327 19.8868 11.2354 20.0896C11.4382 20.2923 11.7132 20.4062 12 20.4062C12.2868 20.4062 12.5618 20.2923 12.7646 20.0896C12.9673 19.8868 13.0812 19.6118 13.0812 19.325C13.0813 19.0382 12.9673 18.7632 12.7646 18.5604C12.5618 18.3577 12.2868 18.2437 12 18.2437ZM19.325 18.2437C19.0382 18.2437 18.7632 18.3577 18.5604 18.5604C18.3577 18.7632 18.2437 19.0382 18.2437 19.325C18.2437 19.6118 18.3577 19.8868 18.5604 20.0896C18.7632 20.2923 19.0382 20.4062 19.325 20.4062C19.6118 20.4062 19.8868 20.2923 20.0896 20.0896C20.2923 19.8868 20.4062 19.6118 20.4062 19.325C20.4062 19.0382 20.2923 18.7632 20.0896 18.5604C19.8868 18.3577 19.6118 18.2437 19.325 18.2437ZM17.4998 17.4998C17.9839 17.0157 18.6404 16.7437 19.325 16.7437C20.0096 16.7437 20.6661 17.0157 21.1502 17.4998C21.6343 17.9839 21.9062 18.6404 21.9062 19.325C21.9062 20.0096 21.6343 20.6661 21.1502 21.1502C20.6661 21.6343 20.0096 21.9062 19.325 21.9062C18.6404 21.9062 17.9839 21.6343 17.4998 21.1502C17.0157 20.6661 16.7437 20.0096 16.7437 19.325C16.7437 18.6404 17.0157 17.9839 17.4998 17.4998Z" fill="#343a40"/>
</svg>
