<svg width="24" height="24" viewBox="0 0 24 24" fill="none" xmlns="http://www.w3.org/2000/svg">
<g id="icon / 24x24 / success">
<path id="Vector" fill-rule="evenodd" clip-rule="evenodd" d="M12 2C6.47727 2 2 6.47727 2 12C2 17.5227 6.47727 22 12 22C17.5227 22 22 17.5227 22 12C22 6.47727 17.5227 2 12 2ZM16.3345 10.3091C16.4144 10.2179 16.4751 10.1116 16.5133 9.99652C16.5514 9.88145 16.5661 9.75992 16.5566 9.63908C16.5471 9.51823 16.5135 9.40051 16.4578 9.29284C16.4021 9.18517 16.3254 9.08973 16.2323 9.01213C16.1392 8.93453 16.0315 8.87633 15.9155 8.84097C15.7996 8.8056 15.6777 8.79378 15.5572 8.80621C15.4366 8.81863 15.3197 8.85504 15.2134 8.9133C15.1071 8.97156 15.0135 9.0505 14.9382 9.14545L11.0291 13.8355L9.00636 11.8118C8.83491 11.6462 8.60527 11.5546 8.36691 11.5567C8.12855 11.5587 7.90054 11.6543 7.73198 11.8229C7.56343 11.9914 7.46782 12.2195 7.46575 12.4578C7.46368 12.6962 7.55531 12.9258 7.72091 13.0973L10.4482 15.8245C10.5375 15.9138 10.6445 15.9835 10.7622 16.0291C10.8799 16.0748 11.0059 16.0954 11.1321 16.0897C11.2582 16.084 11.3818 16.052 11.4949 15.9959C11.608 15.9397 11.7082 15.8606 11.7891 15.7636L16.3345 10.3091Z" fill="#049B8F"/>
</g>
</svg>
