<svg xmlns="http://www.w3.org/2000/svg" width="24" height="24" viewBox="0 0 24 24" fill="none">
  <path fill-rule="evenodd" clip-rule="evenodd" d="M12 4.9375C8.00978 4.9375 4.9375 7.81082 4.9375 11.0625C4.9375 11.4767 4.60171 11.8125 4.1875 11.8125C3.77329 11.8125 3.4375 11.4767 3.4375 11.0625C3.4375 6.81418 7.36022 3.4375 12 3.4375C14.5802 3.4375 16.6955 4.63964 18.1326 5.78935C18.4793 6.06671 18.7901 6.34384 19.0625 6.60501V4.1875C19.0625 3.77329 19.3983 3.4375 19.8125 3.4375C20.2267 3.4375 20.5625 3.77329 20.5625 4.1875V8.5625C20.5625 8.97671 20.2267 9.3125 19.8125 9.3125H16.0625C15.6483 9.3125 15.3125 8.97671 15.3125 8.5625C15.3125 8.14829 15.6483 7.8125 16.0625 7.8125H18.1527C17.8805 7.54401 17.5599 7.25217 17.1955 6.96065C15.8983 5.92286 14.1073 4.9375 12 4.9375ZM19.8125 12.1875C20.2267 12.1875 20.5625 12.5233 20.5625 12.9375C20.5625 17.1858 16.6398 20.5625 12 20.5625C9.41975 20.5625 7.30455 19.3604 5.86742 18.2107C5.52071 17.9333 5.20986 17.6562 4.9375 17.395V19.8125C4.9375 20.2267 4.60171 20.5625 4.1875 20.5625C3.77329 20.5625 3.4375 20.2267 3.4375 19.8125V15.4375C3.4375 15.0233 3.77329 14.6875 4.1875 14.6875H7.9375C8.35171 14.6875 8.6875 15.0233 8.6875 15.4375C8.6875 15.8517 8.35171 16.1875 7.9375 16.1875H5.84735C6.11952 16.456 6.44007 16.7478 6.80446 17.0393C8.1017 18.0771 9.89275 19.0625 12 19.0625C15.9902 19.0625 19.0625 16.1892 19.0625 12.9375C19.0625 12.5233 19.3983 12.1875 19.8125 12.1875Z" fill="#049B8F"/>
</svg>