<svg width="20" height="19" viewBox="0 0 20 19" fill="none" xmlns="http://www.w3.org/2000/svg">
<g id="Group">
<path id="Vector 91" d="M10.5 5.49988L14.5 1.49988M14.5 1.49988L18.5 5.49988M14.5 1.49988V12.4999C14.5 13.0522 14.0523 13.4999 13.5 13.4999H4.5" stroke="white" stroke-width="1.5" stroke-linecap="round"/>
<path id="Vector" d="M19 9.19995C18.6 9.19995 18.2 9.49995 18.2 9.99995V16C18.2 16.7 17.6 17.2 17 17.2H2.99995C2.29995 17.2 1.79995 16.6 1.79995 16V3.99995C1.79995 3.29995 2.39995 2.79995 2.99995 2.79995H7.99995C8.39995 2.79995 8.79995 2.49995 8.79995 1.99995C8.79995 1.49995 8.39995 1.19995 7.99995 1.19995H2.99995C1.49995 1.19995 0.199951 2.49995 0.199951 3.99995V16C0.199951 17.5 1.39995 18.7999 2.99995 18.7999H17C18.5 18.7999 19.7999 17.6 19.7999 16V9.99995C19.7999 9.59995 19.4 9.19995 19 9.19995Z" fill="white"/>
</g>
</svg>
