<svg width="20" height="20" viewBox="0 0 20 20" fill="none" xmlns="http://www.w3.org/2000/svg">
<path d="M6.40971 1C4.52864 1 3.79082 1.14248 3.02948 1.54964C2.38894 1.89221 1.89221 2.38894 1.54964 3.02948C1.14248 3.79082 1 4.52864 1 6.40971V13.5903C1 15.4714 1.14248 16.2092 1.54964 16.9705C1.89221 17.6111 2.38894 18.1078 3.02948 18.4504C3.79082 18.8575 4.52864 19 6.40971 19H13.5903C15.4714 19 16.2092 18.8575 16.9705 18.4504C17.6111 18.1078 18.1078 17.6111 18.4504 16.9705C18.8575 16.2092 19 15.4714 19 13.5903V6.40971C19 4.52864 18.8575 3.79082 18.4504 3.02948C18.1078 2.38894 17.6111 1.89221 16.9705 1.54964C16.2092 1.14248 15.4714 1 13.5903 1H6.40971ZM6.40971 0H13.5903C15.8191 0 16.6273 0.232064 17.4421 0.667832C18.2569 1.1036 18.8964 1.74307 19.3322 2.55789C19.7679 3.3727 20 4.18092 20 6.40971V13.5903C20 15.8191 19.7679 16.6273 19.3322 17.4421C18.8964 18.2569 18.2569 18.8964 17.4421 19.3322C16.6273 19.7679 15.8191 20 13.5903 20H6.40971C4.18092 20 3.3727 19.7679 2.55789 19.3322C1.74307 18.8964 1.1036 18.2569 0.667832 17.4421C0.232064 16.6273 0 15.8191 0 13.5903V6.40971C0 4.18092 0.232064 3.3727 0.667832 2.55789C1.1036 1.74307 1.74307 1.1036 2.55789 0.667832C3.3727 0.232064 4.18092 0 6.40971 0Z" fill="#A4B1BB"/>
<path d="M9.5 12C9.5 11.7239 9.72386 11.5 10 11.5C10.2761 11.5 10.5 11.7239 10.5 12V17C10.5 17.2761 10.2761 17.5 10 17.5C9.72386 17.5 9.5 17.2761 9.5 17V12Z" fill="#A4B1BB"/>
<path d="M14 16.5C14.2761 16.5 14.5 16.7239 14.5 17C14.5 17.2761 14.2761 17.5 14 17.5H6C5.72386 17.5 5.5 17.2761 5.5 17C5.5 16.7239 5.72386 16.5 6 16.5H14Z" fill="#A4B1BB"/>
<path d="M8 14.5C8.27614 14.5 8.5 14.7239 8.5 15C8.5 15.2761 8.27614 15.5 8 15.5H7C6.72386 15.5 6.5 15.2761 6.5 15C6.5 14.7239 6.72386 14.5 7 14.5H8Z" fill="#A4B1BB"/>
<path d="M13 14.5C13.2761 14.5 13.5 14.7239 13.5 15C13.5 15.2761 13.2761 15.5 13 15.5H12C11.7239 15.5 11.5 15.2761 11.5 15C11.5 14.7239 11.7239 14.5 12 14.5H13Z" fill="#A4B1BB"/>
<path d="M10.2059 11.9118C7.60689 11.9118 5.5 9.80487 5.5 7.20588C5.5 4.6069 7.60689 2.5 10.2059 2.5C12.8049 2.5 14.9118 4.6069 14.9118 7.20588C14.9118 9.80487 12.8049 11.9118 10.2059 11.9118ZM10.2059 10.9118C12.2526 10.9118 13.9118 9.25258 13.9118 7.20588C13.9118 5.15918 12.2526 3.5 10.2059 3.5C8.15918 3.5 6.5 5.15918 6.5 7.20588C6.5 9.25258 8.15918 10.9118 10.2059 10.9118Z" fill="#A4B1BB"/>
</svg>
