<svg width="20" height="20" viewBox="0 0 20 20" fill="none" xmlns="http://www.w3.org/2000/svg">
<path d="M6.40971 1C4.52864 1 3.79082 1.14248 3.02948 1.54964C2.38894 1.89221 1.89221 2.38894 1.54964 3.02948C1.14248 3.79082 1 4.52864 1 6.40971V13.5903C1 15.4714 1.14248 16.2092 1.54964 16.9705C1.89221 17.6111 2.38894 18.1078 3.02948 18.4504C3.79082 18.8575 4.52864 19 6.40971 19H13.5903C15.4714 19 16.2092 18.8575 16.9705 18.4504C17.6111 18.1078 18.1078 17.6111 18.4504 16.9705C18.8575 16.2092 19 15.4714 19 13.5903V6.40971C19 4.52864 18.8575 3.79082 18.4504 3.02948C18.1078 2.38894 17.6111 1.89221 16.9705 1.54964C16.2092 1.14248 15.4714 1 13.5903 1H6.40971ZM6.40971 0H13.5903C15.8191 0 16.6273 0.232064 17.4421 0.667832C18.2569 1.1036 18.8964 1.74307 19.3322 2.55789C19.7679 3.3727 20 4.18092 20 6.40971V13.5903C20 15.8191 19.7679 16.6273 19.3322 17.4421C18.8964 18.2569 18.2569 18.8964 17.4421 19.3322C16.6273 19.7679 15.8191 20 13.5903 20H6.40971C4.18092 20 3.3727 19.7679 2.55789 19.3322C1.74307 18.8964 1.1036 18.2569 0.667832 17.4421C0.232064 16.6273 0 15.8191 0 13.5903V6.40971C0 4.18092 0.232064 3.3727 0.667832 2.55789C1.1036 1.74307 1.74307 1.1036 2.55789 0.667832C3.3727 0.232064 4.18092 0 6.40971 0Z" fill="#A4B1BB"/>
<path fill-rule="evenodd" clip-rule="evenodd" d="M10.0008 4C7.60363 4 5.64444 5.79555 5.56122 8.0326C4.04943 8.70037 3 10.1465 3 11.8193C3 14.1248 4.99277 16 7.44268 16C8.39407 16 9.27642 15.7171 10 15.2361C10.7236 15.717 11.606 16 12.5573 16C15.0072 16 17 14.1248 17 11.8193C17 10.1471 15.9513 8.70137 14.4404 8.03329C14.3575 5.79592 12.3982 4 10.0008 4ZM10.0008 4.59879C11.9706 4.59879 13.5854 5.99867 13.786 7.80139C13.3957 7.69554 12.9834 7.63863 12.5573 7.63863C11.606 7.63863 10.7236 7.92159 10 8.40257C9.27642 7.92158 8.39407 7.63863 7.44268 7.63863C7.01717 7.63863 6.60551 7.69535 6.21564 7.80092C6.41649 5.99842 8.03115 4.59879 10.0008 4.59879ZM7.44268 8.23742C8.19709 8.23742 8.89938 8.44282 9.49018 8.79746C8.76576 9.44886 8.27456 10.328 8.14745 11.3114C7.0541 10.7382 6.2943 9.67271 6.20376 8.43073C6.59195 8.30549 7.00868 8.23742 7.44268 8.23742ZM12.5573 8.23742C12.9919 8.23742 13.4091 8.30568 13.7978 8.43124C13.7071 9.67358 12.9466 10.7393 11.8526 11.3122C11.7256 10.3285 11.2344 9.44904 10.5098 8.79746C11.1006 8.44282 11.8029 8.23742 12.5573 8.23742ZM5.59091 8.6878C5.77851 10.1415 6.76188 11.3672 8.11772 11.9667C8.15948 13.0951 8.67829 14.1111 9.49018 14.8412C8.89938 15.1958 8.19709 15.4012 7.44268 15.4012C5.33665 15.4012 3.63632 13.8012 3.63632 11.8193C3.63632 10.4706 4.42397 9.29892 5.59091 8.6878ZM14.4107 8.68855C15.5767 9.29989 16.3637 10.4712 16.3637 11.8193C16.3637 13.8011 14.6634 15.4012 12.5573 15.4012C11.8029 15.4012 11.1006 15.1958 10.5098 14.8411C11.3215 14.1112 11.8403 13.0954 11.8823 11.9674C13.2387 11.3682 14.2227 10.1425 14.4107 8.68855ZM10 9.16374C10.7064 9.76633 11.1702 10.6158 11.2397 11.5692C10.8515 11.6945 10.4348 11.7626 10.0008 11.7626C9.56622 11.7626 9.14896 11.6943 8.7603 11.5688C8.82993 10.6155 9.29367 9.76622 10 9.16374ZM8.77207 12.1987C9.16245 12.3045 9.5747 12.3614 10.0008 12.3614C10.4263 12.3614 10.838 12.3047 11.2278 12.1991C11.1275 13.0997 10.6742 13.8998 10 14.4749C9.32563 13.8997 8.87233 13.0995 8.77207 12.1987Z" fill="#A4B1BB" stroke="#A4B1BB" stroke-width="0.25"/>
</svg>
