<svg width="20" height="21" viewBox="0 0 20 21" fill="none" xmlns="http://www.w3.org/2000/svg">
<g opacity="0.4">
<path fill-rule="evenodd" clip-rule="evenodd" d="M6.40971 1.5C4.52864 1.5 3.79082 1.64248 3.02948 2.04964C2.38894 2.39221 1.89221 2.88894 1.54964 3.52948C1.14248 4.29082 1 5.02864 1 6.90971V14.0903C1 15.9714 1.14248 16.7092 1.54964 17.4705C1.89221 18.1111 2.38894 18.6078 3.02948 18.9504C3.79082 19.3575 4.52864 19.5 6.40971 19.5H13.5903C15.4714 19.5 16.2092 19.3575 16.9705 18.9504C17.6111 18.6078 18.1078 18.1111 18.4504 17.4705C18.8575 16.7092 19 15.9714 19 14.0903V6.90971C19 5.02864 18.8575 4.29082 18.4504 3.52948C18.1078 2.88894 17.6111 2.39221 16.9705 2.04964C16.2092 1.64248 15.4714 1.5 13.5903 1.5H6.40971ZM6.40971 0.5H13.5903C15.8191 0.5 16.6273 0.732064 17.4421 1.16783C18.2569 1.6036 18.8964 2.24307 19.3322 3.05789C19.7679 3.8727 20 4.68092 20 6.90971V14.0903C20 16.3191 19.7679 17.1273 19.3322 17.9421C18.8964 18.7569 18.2569 19.3964 17.4421 19.8322C16.6273 20.2679 15.8191 20.5 13.5903 20.5H6.40971C4.18092 20.5 3.3727 20.2679 2.55789 19.8322C1.74307 19.3964 1.1036 18.7569 0.667832 17.9421C0.232064 17.1273 0 16.3191 0 14.0903V6.90971C0 4.68092 0.232064 3.8727 0.667832 3.05789C1.1036 2.24307 1.74307 1.6036 2.55789 1.16783C3.3727 0.732064 4.18092 0.5 6.40971 0.5Z" fill="#283946"/>
<path fill-rule="evenodd" clip-rule="evenodd" d="M4.135 9.6117C4.1533 9.59171 4.17493 9.57552 4.19879 9.56372C4.2855 9.52074 4.4704 9.42997 6.4048 9.40038C6.75998 8.80318 7.59775 7.40746 7.8041 7.18434C7.88786 7.09377 7.97457 7 9.70946 7C11.5708 7 14.2812 7.11376 14.3084 7.11496C14.3163 7.11524 14.3237 7.11721 14.3312 7.1192C14.3346 7.1201 14.338 7.12101 14.3415 7.12176C14.3448 7.12249 14.3482 7.123 14.3515 7.12352C14.3574 7.12442 14.3632 7.12532 14.3689 7.12736C14.379 7.13107 14.3882 7.13664 14.3975 7.14225L14.4027 7.14535C14.4055 7.14698 14.4084 7.14844 14.4113 7.14989C14.4165 7.15252 14.4217 7.15513 14.4264 7.15875C14.4353 7.16551 14.4429 7.1741 14.4506 7.18273C14.4524 7.1848 14.4543 7.18688 14.4561 7.18894C14.4584 7.19143 14.4608 7.1937 14.4631 7.19595C14.4666 7.19929 14.4701 7.20259 14.473 7.20653C14.4863 7.22492 14.4974 7.24572 14.5053 7.26831L15.3481 9.51094C15.3986 9.51234 15.4494 9.51374 15.4966 9.51494C16.2731 9.53673 16.4451 9.54155 16.5031 9.63194C16.5196 9.65766 16.5269 9.69032 16.5362 9.73226L16.9955 12.1594C17.0087 12.2286 16.9926 12.3008 16.9517 12.3558C16.9108 12.4109 16.8495 12.4435 16.784 12.4449L16.7029 12.4464C16.5406 12.4494 16.145 12.4566 15.5898 12.4661C15.547 13.3194 14.8934 14 14.0937 14C13.3081 14 12.6626 13.343 12.6 12.5107C11.2225 12.5287 9.68191 12.5449 8.25469 12.5509C8.17445 13.3642 7.53655 14 6.7635 14C5.98785 14 5.34792 13.3602 5.271 12.5433C3.47639 12.5195 3.28909 12.4609 3.20866 12.4355C3.15596 12.4189 3.11104 12.3818 3.08256 12.331C2.79283 11.8165 3.29464 10.5206 4.135 9.6117ZM14.0937 13.5244C14.6784 13.5244 15.1539 13.0099 15.1539 12.378C15.1539 11.7458 14.6782 11.2313 14.0937 11.2313C13.5091 11.2313 13.0335 11.7458 13.0335 12.378C13.0334 13.0099 13.5091 13.5244 14.0937 13.5244ZM6.76331 13.5244C7.34795 13.5244 7.82351 13.0099 7.82351 12.378C7.82351 11.7458 7.34777 11.2313 6.76331 11.2313C6.17867 11.2313 5.70292 11.7458 5.70292 12.378C5.70292 13.0099 6.17848 13.5244 6.76331 13.5244ZM3.43608 11.9983C3.63429 12.0237 4.12409 12.0531 5.29116 12.0681C5.42539 11.3213 6.03389 10.7557 6.76312 10.7557C7.49458 10.7557 8.10456 11.3251 8.23602 12.0753C9.6784 12.0691 11.2376 12.0529 12.6279 12.0345C12.774 11.3043 13.3752 10.7555 14.0934 10.7555C14.7971 10.7555 15.3875 11.2829 15.5485 11.9909C15.9458 11.9843 16.2646 11.9785 16.4767 11.9747L16.5111 11.9741L16.1396 10.01C15.2577 9.98018 11.0097 9.86622 7.81223 9.86622C5.20185 9.86622 4.56303 9.94379 4.41068 9.98598C3.68865 10.7859 3.40761 11.6818 3.43608 11.9983ZM10.5241 9.41157C10.7327 9.41437 10.9398 9.41737 11.1439 9.42057L11.5571 7.55221C11.4079 7.54721 11.2582 7.54261 11.1078 7.53822C10.7756 7.53082 10.012 7.51542 9.70965 7.51542C8.55801 7.51523 8.20994 7.61333 8.10591 7.64265C8.10091 7.64406 8.09647 7.64531 8.09254 7.64638C8.024 7.73237 7.89042 7.97104 7.72536 8.26598C7.52928 8.61634 7.28876 9.0461 7.06007 9.39358C7.29175 9.39198 7.5408 9.39118 7.81279 9.39118C8.51836 9.39118 9.78157 9.40298 10.5241 9.41157ZM11.5658 9.42757L12.0283 7.5694C12.4777 7.5866 13.3566 7.62699 13.7127 7.64338C13.8961 7.65218 14.0464 7.65917 14.1461 7.66317L14.7646 9.49534C14.5787 9.49055 14.38 9.48575 14.1705 9.48075C14.1222 9.47972 13.9251 9.47514 13.7553 9.47119C13.6387 9.46848 13.535 9.46607 13.501 9.46531L13.4043 9.46316C12.8638 9.45156 12.2353 9.43896 11.5658 9.42757Z" fill="#283946"/>
<path d="M14.4027 7.14535C14.4055 7.14698 14.4084 7.14844 14.4113 7.14989C14.4165 7.15252 14.4217 7.15513 14.4264 7.15875C14.4353 7.16551 14.4429 7.1741 14.4506 7.18273C14.4524 7.1848 14.4543 7.18688 14.4561 7.18894C14.4584 7.19143 14.4608 7.1937 14.4631 7.19595C14.4666 7.19929 14.4701 7.20259 14.473 7.20653C14.4863 7.22492 14.4974 7.24572 14.5053 7.26831L15.3481 9.51094C15.3986 9.51234 15.4494 9.51374 15.4966 9.51494C16.2731 9.53673 16.4451 9.54155 16.5031 9.63194C16.5196 9.65766 16.5269 9.69032 16.5362 9.73226L16.9955 12.1594C17.0087 12.2286 16.9926 12.3008 16.9517 12.3558C16.9108 12.4109 16.8495 12.4435 16.784 12.4449M14.4027 7.14535C14.401 7.14432 14.3993 7.14329 14.3975 7.14225M14.4027 7.14535L14.3975 7.14225M16.784 12.4449C16.7803 12.445 16.7526 12.4455 16.7029 12.4464M16.784 12.4449L16.7029 12.4464M13.4043 9.46316C12.8638 9.45156 12.2353 9.43896 11.5658 9.42757L12.0283 7.5694C12.4777 7.5866 13.3566 7.62699 13.7127 7.64338C13.8961 7.65218 14.0464 7.65917 14.1461 7.66317L14.7646 9.49534C14.5787 9.49055 14.38 9.48575 14.1705 9.48075C14.1222 9.47972 13.9251 9.47514 13.7553 9.47119C13.6387 9.46848 13.535 9.46607 13.501 9.46531M13.4043 9.46316C13.4367 9.46388 13.4689 9.4646 13.501 9.46531M13.4043 9.46316L13.501 9.46531M16.5111 11.9741L16.1396 10.01C15.2577 9.98018 11.0097 9.86622 7.81223 9.86622C5.20185 9.86622 4.56303 9.94379 4.41068 9.98598C3.68865 10.7859 3.40761 11.6818 3.43608 11.9983C3.63429 12.0237 4.12409 12.0531 5.29116 12.0681C5.42539 11.3213 6.03389 10.7557 6.76312 10.7557C7.49458 10.7557 8.10456 11.3251 8.23602 12.0753C9.6784 12.0691 11.2376 12.0529 12.6279 12.0345C12.774 11.3043 13.3752 10.7555 14.0934 10.7555C14.7971 10.7555 15.3875 11.2829 15.5485 11.9909C15.9458 11.9843 16.2646 11.9785 16.4767 11.9747M16.5111 11.9741L16.4767 11.9747M16.5111 11.9741C16.5 11.9743 16.4885 11.9745 16.4767 11.9747M16.7029 12.4464C16.5406 12.4494 16.145 12.4566 15.5898 12.4661C15.547 13.3194 14.8934 14 14.0937 14C13.3081 14 12.6626 13.343 12.6 12.5107C11.2225 12.5287 9.68191 12.5449 8.25469 12.5509C8.17445 13.3642 7.53655 14 6.7635 14C5.98785 14 5.34792 13.3602 5.271 12.5433C3.47639 12.5195 3.28909 12.4609 3.20866 12.4355C3.15596 12.4189 3.11103 12.3818 3.08256 12.331C2.79283 11.8165 3.29464 10.5206 4.135 9.6117C4.1533 9.59171 4.17493 9.57552 4.19879 9.56372C4.2855 9.52074 4.4704 9.42997 6.4048 9.40038C6.75998 8.80318 7.59775 7.40746 7.8041 7.18434C7.88786 7.09377 7.97457 7 9.70946 7C11.5708 7 14.2812 7.11376 14.3084 7.11496C14.3163 7.11524 14.3237 7.11721 14.3312 7.1192C14.3346 7.1201 14.338 7.12101 14.3415 7.12176C14.3448 7.12249 14.3482 7.123 14.3515 7.12352C14.3574 7.12442 14.3632 7.12532 14.3689 7.12736C14.379 7.13107 14.3882 7.13664 14.3975 7.14225M11.1078 7.53822C11.2582 7.54261 11.4079 7.54721 11.5571 7.55221L11.1439 9.42057C10.9398 9.41737 10.7327 9.41437 10.5241 9.41157C9.78157 9.40298 8.51836 9.39118 7.81279 9.39118C7.5408 9.39118 7.29175 9.39198 7.06007 9.39358C7.28876 9.0461 7.52928 8.61634 7.72536 8.26598C7.89042 7.97104 8.024 7.73237 8.09254 7.64638C8.09647 7.64531 8.10091 7.64406 8.10591 7.64265C8.20994 7.61333 8.55801 7.51523 9.70965 7.51542C10.012 7.51542 10.7756 7.53082 11.1078 7.53822ZM14.0937 13.5244C14.6784 13.5244 15.1539 13.0099 15.1539 12.378C15.1539 11.7458 14.6782 11.2313 14.0937 11.2313C13.5091 11.2313 13.0335 11.7458 13.0335 12.378C13.0334 13.0099 13.5091 13.5244 14.0937 13.5244ZM6.76331 13.5244C7.34796 13.5244 7.82351 13.0099 7.82351 12.378C7.82351 11.7458 7.34777 11.2313 6.76331 11.2313C6.17866 11.2313 5.70292 11.7458 5.70292 12.378C5.70292 13.0099 6.17848 13.5244 6.76331 13.5244Z" stroke="#283946" stroke-width="0.25"/>
<path d="M6.76411 11.5481C7.18716 11.5481 7.53125 11.9202 7.53125 12.3776C7.53125 12.8351 7.18716 13.2071 6.76411 13.2071C6.34107 13.2071 5.99697 12.8351 5.99697 12.3776C5.99697 11.9202 6.34107 11.5481 6.76411 11.5481ZM6.76411 12.7315C6.94457 12.7315 7.09138 12.5727 7.09138 12.3776C7.09138 12.1825 6.94457 12.0237 6.76411 12.0237C6.58365 12.0237 6.43684 12.1825 6.43684 12.3776C6.43666 12.5727 6.58347 12.7315 6.76411 12.7315Z" fill="#283946"/>
<path d="M14.0922 11.5481C14.5153 11.5481 14.8594 11.9202 14.8594 12.3776C14.8594 12.8351 14.5153 13.2071 14.0922 13.2071C13.6692 13.2071 13.3251 12.8351 13.3251 12.3776C13.3251 11.9202 13.6692 11.5481 14.0922 11.5481ZM14.0922 12.7315C14.2727 12.7315 14.4195 12.5727 14.4195 12.3776C14.4195 12.1825 14.2727 12.0237 14.0922 12.0237C13.9118 12.0237 13.765 12.1825 13.765 12.3776C13.7648 12.5727 13.9116 12.7315 14.0922 12.7315Z" fill="#283946"/>
</g>
</svg>
