<svg width="19" height="20" viewBox="0 0 19 20" fill="none" xmlns="http://www.w3.org/2000/svg">
<g id="Indicators/CautionIndicator">
<path id="Combined Shape" fill-rule="evenodd" clip-rule="evenodd" d="M7.53301 4.92879L2.76835 12.3397C2.5549 12.6717 2.44141 13.0581 2.44141 13.4528C2.44141 14.5895 3.36291 15.511 4.49963 15.511H14.0289C14.4236 15.511 14.81 15.3975 15.142 15.1841C16.0982 14.5693 16.375 13.2959 15.7602 12.3397L10.9956 4.92879C10.8362 4.68083 10.6253 4.47001 10.3774 4.31059C9.42121 3.69585 8.14775 3.97263 7.53301 4.92879ZM3.47052 13.4528C3.47052 13.2554 3.52727 13.0622 3.63399 12.8962L8.39865 5.48533C8.70602 5.00725 9.34275 4.86886 9.82083 5.17623C9.94481 5.25594 10.0502 5.36135 10.1299 5.48533L14.8946 12.8962C15.202 13.3743 15.0636 14.0111 14.5855 14.3184C14.4195 14.4252 14.2263 14.4819 14.0289 14.4819H4.49963C3.93127 14.4819 3.47052 14.0211 3.47052 13.4528ZM8.85317 7.89609C8.85317 7.61191 9.08354 7.38154 9.36772 7.38154C9.6519 7.38154 9.88228 7.61191 9.88228 7.89609V10.9834C9.88228 11.2676 9.6519 11.498 9.36772 11.498C9.08354 11.498 8.85317 11.2676 8.85317 10.9834V7.89609ZM9.36772 12.0125C9.08354 12.0125 8.85317 12.2429 8.85317 12.5271C8.85317 12.8113 9.08354 13.0417 9.36772 13.0417C9.6519 13.0417 9.88228 12.8113 9.88228 12.5271C9.88228 12.2429 9.6519 12.0125 9.36772 12.0125Z" fill="#EF3E4A"/>
</g>
</svg>
