<svg width="22" height="23" viewBox="0 0 22 23" fill="none" xmlns="http://www.w3.org/2000/svg">
<path d="M11 22.5C17.0751 22.5 22 17.5751 22 11.5C22 5.42487 17.0751 0.5 11 0.5C4.92487 0.5 0 5.42487 0 11.5C0 17.5751 4.92487 22.5 11 22.5Z" fill="#01C73A"/>
<path d="M15.7895 10.9696C15.5344 10.9696 15.3277 11.1605 15.3277 11.3959V15.6587C15.3277 15.8942 15.1209 16.085 14.8659 16.085H6.55339C6.29833 16.085 6.09157 15.8942 6.09157 15.6587V7.1331C6.09157 6.89766 6.29833 6.7068 6.55339 6.7068H12.0951C12.3501 6.7068 12.5569 6.51595 12.5569 6.28051C12.5569 6.04508 12.3501 5.85425 12.0951 5.85425H6.55339C5.78824 5.85425 5.16797 6.42681 5.16797 7.1331V15.6587C5.16797 16.365 5.78824 16.9376 6.55339 16.9376H14.8659C15.631 16.9376 16.2513 16.365 16.2513 15.6587V11.3959C16.2513 11.1605 16.0445 10.9696 15.7895 10.9696Z" fill="white"/>
<path fill-rule="evenodd" clip-rule="evenodd" d="M16.2105 4.66676C16.6411 4.6667 17.0542 4.84917 17.3587 5.17404C17.9926 5.85036 17.9925 6.94684 17.3585 7.62307L11.7722 13.5818C11.7257 13.6316 11.6689 13.669 11.6064 13.6913L9.06182 14.5961C9.01858 14.6113 8.97333 14.619 8.9278 14.6191C8.88238 14.6191 8.83722 14.6113 8.79411 14.5959C8.57188 14.517 8.45173 14.2608 8.52576 14.0238L9.37395 11.3095C9.39485 11.243 9.42981 11.1824 9.47616 11.1326L15.0624 5.17433C15.3661 4.84822 15.7796 4.66543 16.2105 4.66676ZM11.2455 12.8648L16.7588 6.98386C16.9045 6.82896 16.9862 6.61839 16.9857 6.39894C16.9851 6.18066 16.9036 5.97149 16.7591 5.81699C16.4565 5.49355 15.9653 5.49302 15.6621 5.81582L10.1467 11.6968L9.59829 13.4516L11.2455 12.8648Z" fill="white"/>
</svg>
