<svg width="20" height="21" viewBox="0 0 20 21" fill="none" xmlns="http://www.w3.org/2000/svg">
<g opacity="0.4">
<path fill-rule="evenodd" clip-rule="evenodd" d="M6.40971 1.5C4.52864 1.5 3.79082 1.64248 3.02948 2.04964C2.38894 2.39221 1.89221 2.88894 1.54964 3.52948C1.14248 4.29082 1 5.02864 1 6.90971V14.0903C1 15.9714 1.14248 16.7092 1.54964 17.4705C1.89221 18.1111 2.38894 18.6078 3.02948 18.9504C3.79082 19.3575 4.52864 19.5 6.40971 19.5H13.5903C15.4714 19.5 16.2092 19.3575 16.9705 18.9504C17.6111 18.6078 18.1078 18.1111 18.4504 17.4705C18.8575 16.7092 19 15.9714 19 14.0903V6.90971C19 5.02864 18.8575 4.29082 18.4504 3.52948C18.1078 2.88894 17.6111 2.39221 16.9705 2.04964C16.2092 1.64248 15.4714 1.5 13.5903 1.5H6.40971ZM6.40971 0.5H13.5903C15.8191 0.5 16.6273 0.732064 17.4421 1.16783C18.2569 1.6036 18.8964 2.24307 19.3322 3.05789C19.7679 3.8727 20 4.68092 20 6.90971V14.0903C20 16.3191 19.7679 17.1273 19.3322 17.9421C18.8964 18.7569 18.2569 19.3964 17.4421 19.8322C16.6273 20.2679 15.8191 20.5 13.5903 20.5H6.40971C4.18092 20.5 3.3727 20.2679 2.55789 19.8322C1.74307 19.3964 1.1036 18.7569 0.667832 17.9421C0.232064 17.1273 0 16.3191 0 14.0903V6.90971C0 4.68092 0.232064 3.8727 0.667832 3.05789C1.1036 2.24307 1.74307 1.6036 2.55789 1.16783C3.3727 0.732064 4.18092 0.5 6.40971 0.5Z" fill="#283946"/>
<path fill-rule="evenodd" clip-rule="evenodd" d="M12.0708 5C12.3469 5 12.5708 5.22386 12.5708 5.5C12.5708 5.77614 12.3469 6 12.0708 6H9.25C8.2835 6 7.5 6.7835 7.5 7.75C7.5 8.7165 8.2835 9.5 9.25 9.5H10.0708C11.7277 9.5 13.0708 10.8431 13.0708 12.5C13.0708 14.1569 11.7277 15.5 10.0708 15.5H7.5708C7.29466 15.5 7.0708 15.2761 7.0708 15C7.0708 14.7239 7.29466 14.5 7.5708 14.5H10.0708C11.1754 14.5 12.0708 13.6046 12.0708 12.5C12.0708 11.3954 11.1754 10.5 10.0708 10.5H9.25C7.73122 10.5 6.5 9.26878 6.5 7.75C6.5 6.23122 7.73122 5 9.25 5L12.0708 5Z" fill="#283946"/>
<path fill-rule="evenodd" clip-rule="evenodd" d="M10 5C10 5.27614 9.77614 5.5 9.5 5.5C9.22386 5.5 9 5.27614 9 5V4C9 3.72386 9.22386 3.5 9.5 3.5C9.77614 3.5 10 3.72386 10 4V5Z" fill="#283946"/>
<path fill-rule="evenodd" clip-rule="evenodd" d="M10 17C10 17.2761 9.77614 17.5 9.5 17.5C9.22386 17.5 9 17.2761 9 17V15C9 14.7239 9.22386 14.5 9.5 14.5C9.77614 14.5 10 14.7239 10 15V17Z" fill="#283946"/>
</g>
</svg>
