<svg xmlns="http://www.w3.org/2000/svg" width="30" height="30" viewBox="0 0 30 30">
    <path fill="#FFF" fill-rule="nonzero" d="M4.373 18.694l7.523-11.701a3.25 3.25 0 0 1 5.467 0l7.524 11.701a3.25 3.25 0 0 1-2.734 5.007H7.107a3.25 3.25 0 0 1-2.734-5.007zm1.367.879a1.625 1.625 0 0 0 1.367 2.504h15.046a1.625 1.625 0 0 0 1.367-2.504L15.997 7.87a1.625 1.625 0 0 0-2.734 0L5.74 19.573zm9.053-8.708c.449 0 .813.364.813.813v4.875a.812.812 0 1 1-1.625 0v-4.875c0-.449.363-.813.812-.813zm0 7.313a.812.812 0 1 1 0 1.625.812.812 0 0 1 0-1.625z"/>
</svg>
