<svg width="17" height="17" viewBox="0 0 17 17" fill="none" xmlns="http://www.w3.org/2000/svg">
<path d="M8.5 17C3.80558 17 0 13.1944 0 8.5C0 3.80558 3.80558 0 8.5 0C13.1944 0 17 3.80558 17 8.5C17 13.1944 13.1944 17 8.5 17ZM8.5 16C12.6421 16 16 12.6421 16 8.5C16 4.35786 12.6421 1 8.5 1C4.35786 1 1 4.35786 1 8.5C1 12.6421 4.35786 16 8.5 16Z" fill="#01C73A"/>
<path d="M8.50069 14.1773C5.36566 14.1773 2.82422 11.6359 2.82422 8.50087C2.82422 5.36584 5.36566 2.8244 8.50069 2.8244C11.6357 2.8244 14.1772 5.36584 14.1772 8.50087C14.1772 11.6359 11.6357 14.1773 8.50069 14.1773ZM8.50069 13.1773C11.0834 13.1773 13.1772 11.0836 13.1772 8.50087C13.1772 5.91813 11.0834 3.8244 8.50069 3.8244C5.91795 3.8244 3.82422 5.91813 3.82422 8.50087C3.82422 11.0836 5.91795 13.1773 8.50069 13.1773Z" fill="#01C73A"/>
<path d="M8.50138 11.3524C6.92574 11.3524 5.64844 10.0751 5.64844 8.49943C5.64844 6.92379 6.92574 5.64648 8.50138 5.64648C10.077 5.64648 11.3543 6.92379 11.3543 8.49943C11.3543 10.0751 10.077 11.3524 8.50138 11.3524ZM8.50138 10.3524C9.52473 10.3524 10.3543 9.52278 10.3543 8.49943C10.3543 7.47607 9.52473 6.64648 8.50138 6.64648C7.47803 6.64648 6.64844 7.47607 6.64844 8.49943C6.64844 9.52278 7.47803 10.3524 8.50138 10.3524Z" fill="#01C73A"/>
</svg>
