<svg width="12" height="12" viewBox="0 0 12 12" fill="none" xmlns="http://www.w3.org/2000/svg">
<path fill-rule="evenodd" clip-rule="evenodd" d="M0.871332 0.149497C0.672003 -0.0498323 0.348826 -0.0498323 0.149497 0.149497C-0.0498323 0.348826 -0.0498323 0.672003 0.149497 0.871332L5.27816 6L0.149497 11.1287C-0.0498323 11.328 -0.0498323 11.6512 0.149497 11.8505C0.348826 12.0498 0.672003 12.0498 0.871332 11.8505L6 6.72184L11.1287 11.8505C11.328 12.0498 11.6512 12.0498 11.8505 11.8505C12.0498 11.6512 12.0498 11.328 11.8505 11.1287L6.72184 6L11.8505 0.871332C12.0498 0.672003 12.0498 0.348826 11.8505 0.149497C11.6512 -0.0498323 11.328 -0.0498323 11.1287 0.149497L6 5.27816L0.871332 0.149497Z" fill="#506474"/>
</svg>
