<svg width="15" height="15" viewBox="0 0 15 15" fill="none" xmlns="http://www.w3.org/2000/svg">
<path d="M9.39622 0C12.4911 0 15 2.39479 15 5.34892C15 8.30305 12.4911 10.6978 9.39622 10.6978C8.17826 10.6978 7.05106 10.327 6.13181 9.69705C6.11541 9.78663 6.07014 9.87224 5.99747 9.9416L0.842624 14.862C0.649862 15.046 0.337333 15.046 0.144571 14.862C-0.0481904 14.678 -0.0481904 14.3797 0.144571 14.1957L5.29942 9.2753C5.35072 9.22633 5.4105 9.1904 5.47424 9.16749C4.43629 8.19842 3.79243 6.84544 3.79243 5.34892C3.79243 2.39479 6.30133 0 9.39622 0ZM9.39622 0.942297C6.84655 0.942297 4.77963 2.91521 4.77963 5.34892C4.77963 7.78263 6.84655 9.75555 9.39622 9.75555C11.9459 9.75555 14.0128 7.78263 14.0128 5.34892C14.0128 2.91521 11.9459 0.942297 9.39622 0.942297Z" fill="#283946"/>
</svg>
